<svg width="145" height="100" viewBox="0 0 145 100" fill="none" xmlns="http://www.w3.org/2000/svg">
<circle cx="72" cy="50" r="50" fill="#00AAFF"/>
<path d="M76.4695 59.008H68.5335V29.312H76.4695V59.008ZM68.9175 71.424C67.9788 70.4427 67.5095 69.248 67.5095 67.84C67.5095 66.432 67.9788 65.2587 68.9175 64.32C69.8988 63.3387 71.0935 62.848 72.5015 62.848C73.9095 62.848 75.0828 63.3387 76.0215 64.32C77.0028 65.2587 77.4935 66.432 77.4935 67.84C77.4935 69.248 77.0028 70.4427 76.0215 71.424C75.0828 72.3627 73.9095 72.832 72.5015 72.832C71.0935 72.832 69.8988 72.3627 68.9175 71.424Z" fill="white"/>
</svg>
